<svg width="139.968994" height="125.862061" viewBox="0 0 139.969 125.862" fill="none" xmlns="http://www.w3.org/2000/svg" xmlns:xlink="http://www.w3.org/1999/xlink">
	<desc>
			Created with Pixso.
	</desc>
	<defs/>
	<path id="Vector" d="M114.51 0L88.34 14.99L88.39 54.03L51.95 14.48L25.25 0.01L0 14.28L0 95.47L25.52 109.72L51.71 95.22L51.71 88.57L87.29 125.86L139.96 95.44L139.96 14.28L114.51 0ZM90.78 17.79L115.45 31.94L115.45 83.41L90.82 56.68L90.78 17.79ZM2.44 17.09L24.8 30L86.42 96.2L86.44 121.4L24.38 56.33L24.38 106.27L2.44 94.04L2.44 17.09ZM49.26 86.22L49.26 93.79L26.71 106.27L26.71 62.39L49.4 86.22L49.26 86.22ZM137.63 94.05L88.87 122.2L88.85 95.25L26.33 28.09L3.67 15.01L25.29 2.78L50.46 16.43L117.9 89.63L117.9 30.53L92.01 15.69L114.58 2.77L137.63 15.69L137.63 94.05Z" fill="#FFFFFF" fill-opacity="1.000000" fill-rule="nonzero"/>
</svg>
